<svg xmlns="http://www.w3.org/2000/svg" width="800" height="600" viewBox="0 0 800 600">
  <defs>
    <linearGradient id="bg4" x1="0%" y1="0%" x2="100%" y2="100%">
      <stop offset="0%" style="stop-color:#E1DCC9"/>
      <stop offset="100%" style="stop-color:#d4cfb8"/>
    </linearGradient>
  </defs>
  <rect fill="url(#bg4)" width="800" height="600"/>
  <rect fill="#1F150C" x="150" y="80" width="500" height="400" rx="20" opacity="0.95"/>
  <rect fill="#412D15" x="170" y="100" width="460" height="60" rx="8"/>
  <circle fill="#E1DCC9" cx="250" cy="130" r="18" opacity="0.3"/>
  <circle fill="#E1DCC9" cx="300" cy="130" r="18" opacity="0.3"/>
  <circle fill="#E1DCC9" cx="350" cy="130" r="18" opacity="0.3"/>
  <rect fill="#E1DCC9" x="190" y="180" width="420" height="280" rx="12" opacity="0.06"/>
  <circle fill="#412D15" cx="300" cy="300" r="50" opacity="0.4"/>
  <circle fill="#412D15" cx="500" cy="300" r="50" opacity="0.4"/>
  <rect fill="#E1DCC9" x="220" y="270" width="60" height="60" rx="8" opacity="0.2"/>
  <rect fill="#E1DCC9" x="420" y="270" width="60" height="60" rx="8" opacity="0.2"/>
  <rect fill="#412D15" x="170" y="380" width="220" height="80" rx="8" opacity="0.3"/>
  <rect fill="#412D15" x="410" y="380" width="220" height="80" rx="8" opacity="0.3"/>
  <text fill="#E1DCC9" font-family="Arial, sans-serif" font-size="14" font-weight="bold" text-anchor="middle" x="400" y="530" opacity="0.5">EQUIPE PROFESSIONNELLE</text>
  <text fill="#E1DCC9" font-family="Arial, sans-serif" font-size="11" text-anchor="middle" x="400" y="550" opacity="0.3">A votre service</text>
</svg>
