<svg xmlns="http://www.w3.org/2000/svg" width="800" height="600" viewBox="0 0 800 600">
  <defs>
    <linearGradient id="bg1" x1="0%" y1="0%" x2="100%" y2="100%">
      <stop offset="0%" style="stop-color:#1F150C"/>
      <stop offset="100%" style="stop-color:#412D15"/>
    </linearGradient>
    <linearGradient id="floor" x1="0%" y1="0%" x2="0%" y2="100%">
      <stop offset="0%" style="stop-color:#E1DCC9"/>
      <stop offset="100%" style="stop-color:#d4cfb8"/>
    </linearGradient>
  </defs>
  <rect fill="url(#bg1)" width="800" height="600"/>
  <rect fill="url(#floor)" x="0" y="350" width="800" height="250" rx="0"/>
  <rect fill="#E1DCC9" x="60" y="120" width="200" height="230" rx="8" opacity="0.9"/>
  <rect fill="#d4cfb8" x="80" y="140" width="160" height="60" rx="4" opacity="0.5"/>
  <rect fill="#d4cfb8" x="80" y="220" width="160" height="100" rx="4" opacity="0.3"/>
  <rect fill="#E1DCC9" x="300" y="80" width="200" height="270" rx="8" opacity="0.9"/>
  <rect fill="#412D15" x="320" y="100" width="160" height="80" rx="4"/>
  <circle fill="#E1DCC9" cx="400" cy="140" r="20" opacity="0.8"/>
  <rect fill="#E1DCC9" x="320" y="200" width="160" height="130" rx="4" opacity="0.3"/>
  <rect fill="#E1DCC9" x="540" y="120" width="200" height="230" rx="8" opacity="0.9"/>
  <rect fill="#d4cfb8" x="560" y="140" width="160" height="60" rx="4" opacity="0.5"/>
  <rect fill="#d4cfb8" x="560" y="220" width="160" height="100" rx="4" opacity="0.3"/>
  <rect fill="#412D15" x="0" y="340" width="800" height="10" rx="2" opacity="0.6"/>
  <circle fill="#412D15" cx="400" cy="480" r="30" opacity="0.15"/>
  <text fill="#E1DCC9" font-family="Arial, sans-serif" font-size="14" font-weight="bold" text-anchor="middle" x="400" y="485" opacity="0.6">MAROUANE DEVISE</text>
  <text fill="#E1DCC9" font-family="Arial, sans-serif" font-size="11" text-anchor="middle" x="400" y="505" opacity="0.4">Espace d'accueil</text>
</svg>
