<svg xmlns="http://www.w3.org/2000/svg" width="800" height="600" viewBox="0 0 800 600">
  <defs>
    <linearGradient id="bg5" x1="0%" y1="0%" x2="100%" y2="100%">
      <stop offset="0%" style="stop-color:#1F150C"/>
      <stop offset="100%" style="stop-color:#412D15"/>
    </linearGradient>
  </defs>
  <rect fill="url(#bg5)" width="800" height="600"/>
  <rect fill="#E1DCC9" x="0" y="380" width="800" height="220" opacity="0.06"/>
  <rect fill="#E1DCC9" x="80" y="100" width="300" height="280" rx="12" opacity="0.08"/>
  <rect fill="#412D15" x="100" y="120" width="260" height="180" rx="8" opacity="0.5"/>
  <rect fill="#E1DCC9" x="120" y="140" width="220" height="100" rx="4" opacity="0.1"/>
  <rect fill="#E1DCC9" x="120" y="260" width="100" height="20" rx="4" opacity="0.15"/>
  <rect fill="#E1DCC9" x="240" y="260" width="100" height="20" rx="4" opacity="0.15"/>
  <rect fill="#E1DCC9" x="420" y="100" width="300" height="280" rx="12" opacity="0.08"/>
  <rect fill="#412D15" x="440" y="120" width="260" height="180" rx="8" opacity="0.5"/>
  <rect fill="#E1DCC9" x="460" y="140" width="220" height="100" rx="4" opacity="0.1"/>
  <rect fill="#E1DCC9" x="460" y="260" width="100" height="20" rx="4" opacity="0.15"/>
  <rect fill="#E1DCC9" x="580" y="260" width="100" height="20" rx="4" opacity="0.15"/>
  <rect fill="#E1DCC9" x="80" y="420" width="640" height="40" rx="8" opacity="0.06"/>
  <text fill="#E1DCC9" font-family="Arial, sans-serif" font-size="14" font-weight="bold" text-anchor="middle" x="400" y="520" opacity="0.5">BUREAU MODERNE</text>
  <text fill="#E1DCC9" font-family="Arial, sans-serif" font-size="11" text-anchor="middle" x="400" y="540" opacity="0.3">Espaces de travail professionnels</text>
</svg>
