<svg xmlns="http://www.w3.org/2000/svg" width="800" height="600" viewBox="0 0 800 600">
  <defs>
    <linearGradient id="bg6" x1="0%" y1="0%" x2="100%" y2="100%">
      <stop offset="0%" style="stop-color:#E1DCC9"/>
      <stop offset="100%" style="stop-color:#d4cfb8"/>
    </linearGradient>
  </defs>
  <rect fill="url(#bg6)" width="800" height="600"/>
  <rect fill="#1F150C" x="50" y="100" width="700" height="400" rx="16" opacity="0.06"/>
  <rect fill="#412D15" x="100" y="140" width="280" height="180" rx="12" opacity="0.2"/>
  <rect fill="#412D15" x="420" y="140" width="280" height="180" rx="12" opacity="0.2"/>
  <rect fill="#1F150C" x="100" y="340" width="600" height="120" rx="12" opacity="0.08"/>
  <circle fill="#412D15" cx="240" cy="230" r="35" opacity="0.15"/>
  <circle fill="#412D15" cx="560" cy="230" r="35" opacity="0.15"/>
  <rect fill="#1F150C" x="130" y="370" width="180" height="10" rx="5" opacity="0.1"/>
  <rect fill="#1F150C" x="340" y="370" width="120" height="10" rx="5" opacity="0.1"/>
  <rect fill="#1F150C" x="490" y="370" width="180" height="10" rx="5" opacity="0.1"/>
  <rect fill="#1F150C" x="130" y="400" width="140" height="8" rx="4" opacity="0.06"/>
  <rect fill="#1F150C" x="340" y="400" width="100" height="8" rx="4" opacity="0.06"/>
  <rect fill="#1F150C" x="490" y="400" width="140" height="8" rx="4" opacity="0.06"/>
  <text fill="#1F150C" font-family="Arial, sans-serif" font-size="14" font-weight="bold" text-anchor="middle" x="400" y="540" opacity="0.5">ESPACE D'ATTENTE</text>
  <text fill="#412D15" font-family="Arial, sans-serif" font-size="11" text-anchor="middle" x="400" y="560" opacity="0.3">Confort pour nos clients</text>
</svg>
