<svg xmlns="http://www.w3.org/2000/svg" width="800" height="600" viewBox="0 0 800 600">
  <defs>
    <linearGradient id="bg3" x1="0%" y1="0%" x2="100%" y2="100%">
      <stop offset="0%" style="stop-color:#1F150C"/>
      <stop offset="100%" style="stop-color:#000000"/>
    </linearGradient>
  </defs>
  <rect fill="url(#bg3)" width="800" height="600"/>
  <rect fill="#E1DCC9" x="50" y="200" width="700" height="200" rx="16" opacity="0.08"/>
  <rect fill="#412D15" x="100" y="220" width="150" height="160" rx="12" opacity="0.4"/>
  <rect fill="#412D15" x="280" y="220" width="150" height="160" rx="12" opacity="0.4"/>
  <rect fill="#412D15" x="460" y="220" width="150" height="160" rx="12" opacity="0.4"/>
  <circle fill="#E1DCC9" cx="175" cy="280" r="30" opacity="0.15"/>
  <circle fill="#E1DCC9" cx="355" cy="280" r="30" opacity="0.15"/>
  <circle fill="#E1DCC9" cx="535" cy="280" r="30" opacity="0.15"/>
  <rect fill="#E1DCC9" x="130" y="320" width="90" height="8" rx="4" opacity="0.2"/>
  <rect fill="#E1DCC9" x="310" y="320" width="90" height="8" rx="4" opacity="0.2"/>
  <rect fill="#E1DCC9" x="490" y="320" width="90" height="8" rx="4" opacity="0.2"/>
  <rect fill="#E1DCC9" x="640" y="220" width="80" height="160" rx="12" opacity="0.15"/>
  <text fill="#E1DCC9" font-family="Arial, sans-serif" font-size="16" font-weight="bold" text-anchor="middle" x="400" y="490" opacity="0.5">ESPACE CLIENT</text>
  <text fill="#E1DCC9" font-family="Arial, sans-serif" font-size="11" text-anchor="middle" x="400" y="510" opacity="0.3">Confort et modernite</text>
</svg>
